<svg width="203" height="70" viewBox="0 0 203 70" fill="none" xmlns="http://www.w3.org/2000/svg">
<path d="M1.5 33.5C0.671573 33.5 0 34.1716 0 35C0 35.8284 0.671573 36.5 1.5 36.5V35V33.5ZM202.561 36.0607C203.146 35.4749 203.146 34.5251 202.561 33.9393L193.015 24.3934C192.429 23.8076 191.479 23.8076 190.893 24.3934C190.308 24.9792 190.308 25.9289 190.893 26.5147L199.379 35L190.893 43.4853C190.308 44.0711 190.308 45.0208 190.893 45.6066C191.479 46.1924 192.429 46.1924 193.015 45.6066L202.561 36.0607ZM1.5 35V36.5H201.5V35V33.5H1.5V35Z" fill="#B8B8B8"/>
</svg>
